<svg width="280.23500366210936px" height="116px" xmlns="http://www.w3.org/2000/svg" viewBox="109.88249816894532 17 280.23500366210936 116" style="background: rgba(0, 0, 0, 0);" preserveAspectRatio="xMidYMid"><defs><filter id="editing-hole" x="-100%" y="-100%" width="300%" height="300%"><feFlood flood-color="#000" result="black"></feFlood><feMorphology operator="dilate" radius="2" in="SourceGraphic" result="erode"></feMorphology><feGaussianBlur in="erode" stdDeviation="4" result="blur"></feGaussianBlur><feOffset in="blur" dx="2" dy="2" result="offset"></feOffset><feComposite operator="atop" in="offset" in2="black" result="merge"></feComposite><feComposite operator="in" in="merge" in2="SourceGraphic" result="inner-shadow"></feComposite></filter></defs><g filter="url(#editing-hole)"><g transform="translate(154.1600158214569, 102.84000015258789)"><path d="M15.87 0.77L15.87 0.77L15.87 0.77Q11.65 0.77 7.42-1.54L7.42-1.54L7.42-1.54Q6.02-2.24 5.50-2.24L5.50-2.24L5.50-2.24Q4.54-2.24 4.48-0.90L4.48-0.90L4.42 0L3.20 0L3.20-10.69L4.35-10.69L4.35-10.69Q4.93-5.76 8.03-3.42L8.03-3.42L8.03-3.42Q11.14-1.09 15.39-1.09L15.39-1.09L15.39-1.09Q19.65-1.09 21.86-3.39L21.86-3.39L21.86-3.39Q24.06-5.70 24.06-8.83L24.06-8.83L24.06-8.83Q24.06-13.82 18.30-16.38L18.30-16.38L10.69-19.78L10.69-19.78Q7.23-21.31 5.50-23.97L5.50-23.97L5.50-23.97Q3.78-26.62 3.78-29.70L3.78-29.70L3.78-29.70Q3.78-34.37 6.91-37.73L6.91-37.73L6.91-37.73Q10.05-41.09 15.94-41.09L15.94-41.09L15.94-41.09Q19.39-41.09 23.04-38.78L23.04-38.78L23.04-38.78Q24.26-38.08 24.70-38.08L24.70-38.08L24.70-38.08Q25.54-38.08 25.60-39.42L25.60-39.42L25.66-40.70L26.88-40.70L26.88-29.63L25.73-29.63L25.73-29.63Q25.22-34.56 22.56-36.90L22.56-36.90L22.56-36.90Q19.90-39.23 16.10-39.23L16.10-39.23L16.10-39.23Q12.29-39.23 10.21-37.15L10.21-37.15L10.21-37.15Q8.13-35.07 8.13-32.42L8.13-32.42L8.13-32.42Q8.13-29.76 9.57-27.65L9.57-27.65L9.57-27.65Q11.01-25.54 13.82-24.32L13.82-24.32L21.50-20.93L21.50-20.93Q25.34-19.20 27.30-16.42L27.30-16.42L27.30-16.42Q29.25-13.63 29.25-10.43L29.25-10.43L29.25-10.43Q29.25-5.89 25.60-2.56L25.60-2.56L25.60-2.56Q21.95 0.77 15.87 0.77ZM37.63 11.78L37.63 11.78L37.63-25.60L37.63-25.60Q37.63-26.50 36.74-26.50L36.74-26.50L33.73-26.50L33.73-27.65L36.86-27.65L36.86-27.65Q40.70-27.65 42.24-28.03L42.24-28.03L42.24-19.07L42.24-19.07Q43.33-23.68 45.73-26.05L45.73-26.05L45.73-26.05Q48.13-28.42 51.07-28.42L51.07-28.42L51.07-28.42Q55.10-28.42 58.18-24.38L58.18-24.38L58.18-24.38Q61.25-20.35 61.25-13.70L61.25-13.70L61.25-13.70Q61.25-7.04 57.76-3.14L57.76-3.14L57.76-3.14Q54.27 0.77 48.64 0.77L48.64 0.77L48.64 0.77Q45.12 0.77 42.24-0.96L42.24-0.96L42.24 11.78L42.24 11.78Q42.24 12.67 43.14 12.67L43.14 12.67L47.42 12.67L47.42 13.82L33.73 13.82L33.73 12.67L36.74 12.67L36.74 12.67Q37.63 12.67 37.63 11.78ZM56.38-13.57L56.38-13.57L56.38-13.57Q56.38-19.52 54.53-22.75L54.53-22.75L54.53-22.75Q52.67-25.98 49.82-25.98L49.82-25.98L49.82-25.98Q46.98-25.98 44.61-22.21L44.61-22.21L44.61-22.21Q42.24-18.43 42.24-11.33L42.24-11.33L42.24-2.69L42.24-2.69Q45.06-0.83 48.42-0.83L48.42-0.83L48.42-0.83Q51.78-0.83 54.08-4.22L54.08-4.22L54.08-4.22Q56.38-7.62 56.38-13.57ZM82.11-14.34L82.11-14.91L82.18-17.15L82.18-19.39L82.18-19.39Q82.18-26.88 77.31-26.88L77.31-26.88L77.31-26.88Q75.20-26.88 74.02-25.44L74.02-25.44L74.02-25.44Q72.83-24 72.83-22.08L72.83-22.08L72.83-22.08Q72.83-20.16 73.34-18.75L73.34-18.75L73.34-18.75Q72.26-17.79 70.34-17.79L70.34-17.79L70.34-17.79Q68.42-17.79 68.42-20.93L68.42-20.93L68.42-20.93Q68.42-24.06 70.88-26.24L70.88-26.24L70.88-26.24Q73.34-28.42 77.89-28.42L77.89-28.42L77.89-28.42Q86.78-28.42 86.78-17.92L86.78-17.92L86.78-4.80L86.78-4.80Q86.78-1.34 88.70-1.34L88.70-1.34L88.70-1.34Q89.60-1.34 90.27-2.18L90.27-2.18L90.27-2.18Q90.94-3.01 90.94-4.10L90.94-4.10L90.94-4.10Q90.94-5.18 90.75-6.14L90.75-6.14L91.97-6.34L91.97-6.34Q92.22-5.38 92.22-4.22L92.22-4.22L92.22-4.22Q92.22-1.92 90.85-0.58L90.85-0.58L90.85-0.58Q89.47 0.77 87.23 0.77L87.23 0.77L87.23 0.77Q84.99 0.77 83.58-1.06L83.58-1.06L83.58-1.06Q82.18-2.88 82.18-6.53L82.18-6.53L82.18-7.68L82.18-7.68Q81.09-3.33 78.72-1.28L78.72-1.28L78.72-1.28Q76.35 0.77 73.25 0.77L73.25 0.77L73.25 0.77Q70.14 0.77 68.26-1.18L68.26-1.18L68.26-1.18Q66.37-3.14 66.37-6.37L66.37-6.37L66.37-6.37Q66.37-9.60 69.38-12.13L69.38-12.13L69.38-12.13Q72.38-14.66 78.02-14.66L78.02-14.66L78.02-14.66Q79.23-14.66 82.11-14.34L82.11-14.34ZM74.69-1.66L74.69-1.66L74.69-1.66Q77.38-1.66 79.52-4.70L79.52-4.70L79.52-4.70Q81.66-7.74 82.05-13.25L82.05-13.25L82.05-13.25Q81.41-13.31 80.26-13.31L80.26-13.31L80.26-13.31Q75.14-13.31 72.93-11.17L72.93-11.17L72.93-11.17Q70.72-9.02 70.72-6.21L70.72-6.21L70.72-6.21Q70.72-4.35 71.81-3.01L71.81-3.01L71.81-3.01Q72.90-1.66 74.69-1.66ZM112.06-28.42L112.06-28.42L112.06-28.42Q114.56-28.42 116.13-26.30L116.13-26.30L116.13-26.30Q117.70-24.19 117.70-20.99L117.70-20.99L117.70-20.99Q117.70-17.79 115.07-17.79L115.07-17.79L115.07-17.79Q113.54-17.79 112.58-18.75L112.58-18.75L112.58-18.75Q113.41-20.61 113.41-22.53L113.41-22.53L113.41-22.53Q113.41-25.92 110.59-25.92L110.59-25.92L110.59-25.92Q108.22-25.92 106.40-21.98L106.40-21.98L106.40-21.98Q104.58-18.05 104.58-10.56L104.58-10.56L104.58-2.05L104.58-2.05Q104.58-1.15 105.47-1.15L105.47-1.15L109.76-1.15L109.76 0L96.06 0L96.06-1.15L99.07-1.15L99.07-1.15Q99.97-1.15 99.97-2.05L99.97-2.05L99.97-25.60L99.97-25.60Q99.97-26.50 99.07-26.50L99.07-26.50L96.06-26.50L96.06-27.65L99.20-27.65L99.20-27.65Q103.04-27.65 104.58-28.03L104.58-28.03L104.58-19.84L104.58-19.84Q105.60-24.26 107.58-26.34L107.58-26.34L107.58-26.34Q109.57-28.42 112.06-28.42ZM123.84-2.05L123.84-2.05L123.84-39.42L123.84-39.42Q123.84-40.32 122.94-40.32L122.94-40.32L119.94-40.32L119.94-41.47L123.07-41.47L123.07-41.47Q126.91-41.47 128.45-41.86L128.45-41.86L128.45-1.92L128.45-1.92Q128.45-1.15 129.34-1.15L129.34-1.15L132.35-1.15L132.35 0L119.94 0L119.94-1.15L122.94-1.15L122.94-1.15Q123.84-1.15 123.84-2.05ZM137.02-26.50L137.02-27.65L145.60-27.65L145.60-26.50L143.23-26.50L143.23-26.50Q142.72-26.50 142.08-25.86L142.08-25.86L133.82-16.45L144-1.66L144-1.66Q144.32-1.15 144.90-1.15L144.90-1.15L147.52-1.15L147.52 0L144.51 0L144.51 0Q141.44 0 139.90 0.38L139.90 0.38L129.66-14.53L140.29-26.50L137.02-26.50ZM152.70-2.05L152.70-2.05L152.70-39.42L152.70-39.42Q152.70-40.32 151.81-40.32L151.81-40.32L148.80-40.32L148.80-41.47L151.94-41.47L151.94-41.47Q155.78-41.47 157.31-41.86L157.31-41.86L157.31-2.05L157.31-2.05Q157.31-1.15 158.21-1.15L158.21-1.15L161.22-1.15L161.22 0L148.80 0L148.80-1.15L151.81-1.15L151.81-1.15Q152.70-1.15 152.70-2.05ZM178.62-28.42L178.62-28.42L178.62-28.42Q183.04-28.42 185.60-25.47L185.60-25.47L185.60-25.47Q188.16-22.53 188.16-16.83L188.16-16.83L188.16-16.83Q188.16-15.68 188.03-14.27L188.03-14.27L170.56-14.27L170.56-13.82L170.56-13.82Q170.56-7.74 172.77-4.26L172.77-4.26L172.77-4.26Q174.98-0.77 178.46-0.77L178.46-0.77L178.46-0.77Q181.95-0.77 184.19-2.56L184.19-2.56L184.19-2.56Q186.43-4.35 187.26-7.68L187.26-7.68L188.48-7.42L188.48-7.42Q187.71-3.52 184.96-1.38L184.96-1.38L184.96-1.38Q182.21 0.77 178.62 0.77L178.62 0.77L178.62 0.77Q173.06 0.77 169.38-3.14L169.38-3.14L169.38-3.14Q165.70-7.04 165.70-13.79L165.70-13.79L165.70-13.79Q165.70-20.54 169.41-24.48L169.41-24.48L169.41-24.48Q173.12-28.42 178.62-28.42ZM183.74-19.01L183.74-19.01L183.74-19.01Q183.74-26.88 177.86-26.88L177.86-26.88L177.86-26.88Q174.91-26.88 172.83-23.68L172.83-23.68L172.83-23.68Q170.75-20.48 170.62-15.55L170.62-15.55L183.49-15.55L183.49-15.55Q183.74-17.73 183.74-19.01Z" fill="#ccc"></path></g></g><style>text {
  font-size: 64px;
  font-family: Arial Black;
  dominant-baseline: central;
  text-anchor: middle;
}</style></svg>